Coordinates
version=1
nRows=19
nColumns=33
inDegrees=yes

Units are S.I. units (second, meters, Newtons, ...)
Angles are in degrees.

endheader
time	ground_thorax_rot_x	ground_thorax_rot_y	ground_thorax_rot_z	ground_thorax_tx	ground_thorax_ty	ground_thorax_tz	clav_prot_r	clav_elev_r	scapula_abduction_r	scapula_elevation_r	scapula_upward_rot_r	scapula_winging_r	shoulder_elv_r	plane_of_elev_r	axial_rot_r	elbow_flexion_r	pro_sup_r	wrist_flex_r	wrist_dev_r	clav_prot_l	clav_elev_l	scapula_abduction_l	scapula_elevation_l	scapula_upward_rot_l	scapula_winging_l	shoulder_elv_l	plane_of_elev_l	axial_rot_l	elbow_flexion_l	pro_sup_l	wrist_flex_l	wrist_dev_l
      6.53000000	     39.35202774	      9.82063896	     12.99148305	   -226.81815353	    838.57138869	      3.14598425	     13.03403884	     35.86995141	     36.71527305	     45.00000000	    -45.00000000	   1355.29701065	  -2983.78649896	    143.31302827	    179.99999979	   2173.87163138	     56.35104561	     23.02858939	      6.05703785	     -1.31147117	    -45.00000000	    -41.13406412	     45.00000000	     12.07227225	  -2769.47975772	  -1711.78507307	     13.66421738	    179.99999979	   1085.86816099	    211.87412235	     10.59661509	    -19.62146251
      6.54000000	     39.32790814	      9.95696189	     13.14485339	   -225.57971845	    837.91327818	      3.12623830	     13.03971341	     35.86736568	     36.78038190	     45.00000000	    -45.00000000	   1355.36708627	  -2983.81318608	    143.31187759	    179.99999979	   2173.88027527	     56.10656319	     23.01847830	      6.14751024	     -1.28650184	    -45.00000000	    -41.25612563	     45.00000000	     12.13711953	  -2769.44909043	  -1711.86478336	     13.66293260	    179.99999979	   1085.84232527	    211.85046425	     10.63349788	    -19.54596229
      6.55000000	     39.34485820	      9.94913909	     13.15679720	   -224.26789808	    837.20650291	      3.10406848	     13.30424151	     35.98281082	     36.94881161	     45.00000000	    -45.00000000	   1355.20647037	  -2983.96142621	    143.05966131	    179.99999979	   2173.86198469	     55.76604904	     23.00390528	      6.25835147	     -1.32789121	    -45.00000000	    -41.24485587	     45.00000000	     12.35804890	  -2769.38719454	  -1712.04045571	     13.77328761	    179.99999979	   1085.83819778	    211.83031622	     10.70272376	    -19.51027056
      6.56000000	     39.27703963	     10.16031471	     13.38404635	   -222.87702214	    836.44852690	      3.07974063	     12.94845511	     35.80257961	     36.98039243	     45.00000000	    -45.00000000	   1355.45415617	  -2983.93135682	    143.24098472	    179.99999979	   2173.89346533	     55.40714665	     23.00004748	      6.38021459	     -1.25320381	    -45.00000000	    -41.44558659	     45.00000000	     12.32229068	  -2769.42877278	  -1712.08305901	     13.66587060	    179.99999979	   1085.72424137	    211.81616538	     10.70721663	    -19.39639058
      6.57000000	     39.32693318	     10.17021716	     13.41082489	   -221.41185896	    835.64194800	      3.05366600	     13.44841871	     36.04063770	     37.24642790	     45.00000000	    -45.00000000	   1355.21356209	  -2984.10564088	    142.94872907	    179.99999979	   2173.79173878	     54.94956083	     22.96907275	      6.52792516	     -1.31558869	    -45.00000000	    -41.45910705	     45.00000000	     12.55153655	  -2769.29918037	  -1712.32032787	     13.79843446	    179.99999979	   1085.79313632	    211.82777222	     10.79253861	    -19.37223248
      6.58000000	     39.21700741	     10.52508429	     13.72664673	   -219.87187580	    834.78799502	      3.02593043	     12.90745230	     35.75722351	     37.14712019	     45.00000000	    -45.00000000	   1355.61330357	  -2984.01913290	    143.25074728	    179.99999979	   2173.84307515	     54.52705921	     22.97681176	      6.67838793	     -1.26559073	    -45.00000000	    -41.67885778	     45.00000000	     12.51076817	  -2769.38195024	  -1712.30071840	     13.65011039	    179.99999979	   1085.66229893	    211.83892792	     10.76450278	    -19.21022969
      6.59000000	     39.26523074	     10.62012938	     13.82147744	   -218.25442007	    833.88551760	      2.99632517	     13.28582786	     35.96636620	     37.36115761	     45.00000000	    -45.00000000	   1355.47932680	  -2984.14518609	    143.06374287	    179.99999979	   2173.75292894	     54.04914491	     22.94126276	      6.83633830	     -1.27463514	    -45.00000000	    -41.75276422	     45.00000000	     12.60922988	  -2769.28076768	  -1712.57052262	     13.73055276	    179.99999979	   1085.67865663	    211.88161563	     10.83174297	    -19.18161668
      6.60000000	     39.14150793	     10.93502390	     14.07802061	   -216.55974947	    832.93540752	      2.96457514	     12.94107548	     35.81323051	     37.31117477	     45.00000000	    -45.00000000	   1355.78580942	  -2984.17919458	    143.24603270	    179.99999979	   2173.77114522	     53.56786306	     22.94886408	      7.01641425	     -1.20830226	    -45.00000000	    -41.96276765	     45.00000000	     12.64766351	  -2769.28477815	  -1712.57742506	     13.68211875	    179.99999979	   1085.56784081	    211.92236481	     10.81974515	    -19.05084578
      6.61000000	     39.32974360	     10.75951980	     14.03591462	   -214.79083858	    831.93813758	      2.93047435	     14.07632029	     36.29243866	     37.90102039	     45.00000000	    -45.00000000	   1355.29468825	  -2984.48735194	    142.76576767	    179.99999979	   2173.56441512	     52.83688150	     22.86898663	      7.22315235	     -1.53526911	    -45.00000000	    -41.85460314	     45.00000000	     13.09014886	  -2769.05061325	  -1712.92083521	     13.83838006	    179.99999979	   1085.77656904	    212.02166710	     10.94569755	    -19.05994052
      6.62000000	     39.31835557	     10.96076401	     14.18770686	   -212.94305475	    830.89048973	      2.89386324	     14.03131265	     36.30378370	     37.98262569	     45.00000000	    -45.00000000	   1355.33175773	  -2984.58249710	    142.66074577	    179.99999979	   2173.46280063	     52.13929439	     22.80908541	      7.43841116	     -1.49153111	    -45.00000000	    -42.04476408	     45.00000000	     13.36880864	  -2768.95451120	  -1713.04029901	     13.84212634	    179.99999979	   1085.80454241	    212.11874344	     10.98101103	    -18.95224112
      6.63000000	     39.30502504	     11.12937007	     14.35033564	   -211.02037679	    829.79097639	      2.85527156	     14.13376261	     36.34577268	     38.13731398	     45.00000000	    -45.00000000	   1355.41852036	  -2984.73051121	    142.63533882	    179.99999979	   2173.39016544	     51.40836216	     22.77138116	      7.67534644	     -1.53926377	    -45.00000000	    -42.18855358	     45.00000000	     13.55958901	  -2768.85618304	  -1713.17160395	     13.82803712	    179.99999979	   1085.80288416	    212.21407939	     11.00338392	    -18.85454160
      6.64000000	     39.26891920	     11.37035147	     14.51219722	   -209.02399668	    828.63609899	      2.81557194	     14.33372459	     36.42422013	     38.23801179	     45.00000000	    -45.00000000	   1355.43765612	  -2984.84644592	    142.56415312	    179.99999979	   2173.25897694	     50.65129764	     22.71076431	      7.92672922	     -1.59528919	    -45.00000000	    -42.28529433	     45.00000000	     13.77102350	  -2768.79460065	  -1713.39374189	     13.86194165	    179.99999979	   1085.81167398	    212.31153024	     11.03853589	    -18.76702720
      6.65000000	     39.31090155	     11.54415603	     14.63916872	   -206.95594713	    827.42263545	      2.77568594	     14.20869156	     36.34960803	     38.34575461	     45.00000000	    -45.00000000	   1355.51376230	  -2984.96179066	    142.48657916	    179.99999979	   2173.22515832	     49.93346867	     22.67269236	      8.17557298	     -1.50526915	    -45.00000000	    -42.46142745	     45.00000000	     13.76245202	  -2768.73748413	  -1713.55005607	     13.85526548	    179.99999979	   1085.79260311	    212.39952824	     11.05525879	    -18.65099820
      6.66000000	     39.33951140	     11.80039507	     14.78816361	   -204.81945614	    826.14789087	      2.73685069	     14.16421595	     36.29056519	     38.43907235	     45.00000000	    -45.00000000	   1355.56431663	  -2985.05267829	    142.43114813	    179.99999979	   2173.10535203	     49.26399878	     22.60267622	      8.42138659	     -1.46046907	    -45.00000000	    -42.61458255	     45.00000000	     13.82561225	  -2768.68853229	  -1713.78068242	     13.84424175	    179.99999979	   1085.80387769	    212.47678842	     11.07805471	    -18.53023968
      6.67000000	     39.36065849	     12.05695720	     14.98218168	   -202.61436065	    824.80898824	      2.70044357	     14.44274755	     36.41582169	     38.57732060	     45.00000000	    -45.00000000	   1355.67101935	  -2985.16998789	    142.44103210	    179.99999979	   2172.95978239	     48.57566657	     22.52836328	      8.66729672	     -1.58447625	    -45.00000000	    -42.73436694	     45.00000000	     14.04669602	  -2768.57414372	  -1713.95236861	     13.83570217	    179.99999979	   1085.85897508	    212.54633438	     11.10374216	    -18.41322712
      6.68000000	     39.37129986	     12.19194785	     15.08187165	   -200.34376255	    823.40780701	      2.66809129	     14.43021438	     36.39614251	     38.77897909	     45.00000000	    -45.00000000	   1355.74723115	  -2985.38822972	    142.40609455	    179.99999979	   2172.90701054	     47.93714724	     22.48469804	      8.91388348	     -1.57291184	    -45.00000000	    -42.91280368	     45.00000000	     14.19053906	  -2768.46626011	  -1714.15791216	     13.83455467	    179.99999979	   1085.84117464	    212.61105599	     11.11682751	    -18.28903867
      6.69000000	     39.39201375	     12.44697666	     15.23733518	   -198.00203888	    821.94288914	      2.64143445	     14.54375765	     36.42642564	     38.85238246	     45.00000000	    -45.00000000	   1355.85897127	  -2985.49531969	    142.35280475	    179.99999979	   2172.76210978	     47.35007733	     22.40083172	      9.15546784	     -1.61548817	    -45.00000000	    -43.07225102	     45.00000000	     14.36849560	  -2768.37987006	  -1714.36575779	     13.83801621	    179.99999979	   1085.90139927	    212.68671440	     11.13340246	    -18.14911484
      6.70000000	     39.45858948	     12.59954742	     15.35222886	   -195.58763339	    820.41692151	      2.62213280	     15.25785079	     36.71321698	     39.19236962	     45.00000000	    -45.00000000	   1356.07386765	  -2985.64347514	    142.59478768	    179.99999979	   2172.68868551	     46.62502690	     22.35392396	      9.41509878	     -2.08154060	    -45.00000000	    -43.24424419	     45.00000000	     15.19330895	  -2768.11610882	  -1714.45326755	     13.77440028	    179.99999979	   1086.06265548	    212.78490000	     11.13391220	    -17.98797302
      6.71000000	     39.44708874	     12.87551119	     15.47878978	   -193.09320850	    818.83294656	      2.61108675	     14.67599864	     36.47691168	     39.14962347	     45.00000000	    -45.00000000	   1356.06059520	  -2985.84782406	    142.30732762	    179.99999979	   2172.53656322	     46.18093255	     22.25603692	      9.65564567	     -1.68118995	    -45.00000000	    -43.48394310	     45.00000000	     15.01132711	  -2768.07115063	  -1714.76294927	     13.81277304	    179.99999979	   1085.99379667	    212.89761858	     11.14040742	    -17.86488151
